<?xml version="1.0" standalone="no"?>
<!DOCTYPE svg PUBLIC "-//W3C//DTD SVG 20010904//EN"
 "http://www.w3.org/TR/2001/REC-SVG-20010904/DTD/svg10.dtd">
<svg version="1.0" xmlns="http://www.w3.org/2000/svg"
 width="559.000000pt" height="318.000000pt" viewBox="0 0 559.000000 318.000000"
 preserveAspectRatio="xMidYMid meet">

<g transform="translate(0.000000,318.000000) scale(0.100000,-0.100000)"
fill="#000000" stroke="none">
<path d="M1906 2889 c-141 -33 -311 -215 -514 -549 -73 -121 -261 -496 -325
-650 l-44 -105 -259 -6 c-159 -4 -275 -11 -299 -19 -44 -13 -85 -46 -85 -67 0
-7 35 -54 78 -102 91 -104 161 -232 193 -356 30 -118 29 -307 -4 -432 -27
-102 -23 -124 17 -105 31 14 19 -14 157 367 62 171 142 384 178 475 l66 165
165 0 c91 0 273 -3 405 -6 l240 -5 -2 -30 c-4 -52 -129 -447 -253 -804 -91
-259 -90 -255 -79 -271 7 -12 13 -12 35 1 24 13 37 44 101 235 93 277 196 607
235 750 17 61 35 113 40 116 5 3 80 9 165 13 86 4 178 12 205 17 51 11 108 51
108 75 0 18 -29 18 -49 0 -9 -8 -51 -19 -94 -25 -104 -15 -317 -15 -317 0 0 6
20 88 45 182 105 404 130 558 130 792 0 173 -2 194 -21 235 -26 54 -67 93
-113 109 -39 13 -51 13 -105 0z m103 -54 c17 -8 39 -34 52 -62 21 -42 24 -65
27 -190 6 -223 -42 -498 -166 -953 l-18 -65 -319 3 c-383 3 -485 8 -485 27 0
42 227 526 335 715 231 404 440 595 574 525z m-1019 -1330 c0 -2 -29 -78 -64
-167 -35 -90 -87 -227 -116 -305 -50 -137 -70 -171 -70 -119 0 52 -52 226 -94
311 -37 78 -73 132 -159 241 -10 13 -16 28 -12 34 6 10 515 15 515 5z"/>
<path d="M4630 2873 c-106 -10 -254 -72 -385 -161 -311 -214 -543 -472 -643
-718 -56 -137 -67 -276 -27 -358 34 -70 151 -122 185 -81 19 23 7 48 -29 57
-88 23 -141 89 -141 176 0 53 50 189 100 274 114 194 302 399 498 546 174 130
307 190 442 199 68 4 80 2 130 -24 95 -49 130 -129 130 -302 0 -242 -94 -547
-305 -988 l-73 -152 -193 -96 c-227 -114 -325 -169 -434 -244 -258 -178 -385
-327 -388 -458 -1 -52 1 -58 35 -88 107 -98 355 -22 557 169 142 136 284 336
446 630 34 61 44 71 90 92 139 61 350 119 492 135 75 9 103 15 103 25 0 8 -8
14 -17 14 -19 -1 -147 -21 -243 -38 -62 -12 -283 -77 -313 -93 -40 -22 -35 10
22 131 168 364 236 568 280 841 25 152 4 306 -53 401 -49 83 -143 122 -266
111z m-164 -1620 c-14 -35 -142 -244 -221 -358 -168 -245 -328 -381 -498 -424
-71 -19 -80 -19 -122 -5 -55 19 -75 45 -75 97 0 122 172 293 500 497 75 47
392 209 409 210 8 0 11 -6 7 -17z"/>
<path d="M2868 1665 c-237 -87 -441 -456 -350 -632 32 -61 80 -83 180 -83 178
0 352 102 620 365 157 153 190 190 178 202 -3 3 -60 -46 -128 -108 -219 -202
-316 -275 -454 -341 -69 -33 -99 -42 -159 -46 -86 -5 -123 6 -160 50 -32 38
-40 88 -25 157 22 101 28 106 121 119 150 21 283 106 324 206 41 97 -33 153
-147 111z m81 -59 c17 -20 4 -59 -32 -96 -49 -50 -107 -75 -224 -94 -50 -8
-42 14 31 87 93 93 195 139 225 103z"/>
</g>
</svg>
